<svg xmlns="http://www.w3.org/2000/svg" width="900" height="900" viewBox="0 0 900 900" version="1.1">
	<path d="M 51.463 119.248 C 51.201 119.936, 51.103 212.525, 51.244 325 L 51.500 529.500 112.480 529.758 L 173.459 530.016 175.501 532.258 C 176.623 533.491, 182.713 540.575, 189.033 548 C 201.230 562.328, 203.214 564.673, 214.951 578.636 C 219.050 583.511, 228.741 594.925, 236.487 604 C 244.233 613.075, 256.310 627.250, 263.325 635.500 C 270.339 643.750, 276.871 651.400, 277.841 652.500 C 278.810 653.600, 284.375 660.125, 290.208 667 C 296.040 673.875, 311.992 692.603, 325.656 708.618 C 339.320 724.633, 354.775 742.810, 360 749.011 C 365.225 755.212, 373.945 765.509, 379.378 771.893 C 384.811 778.277, 392.011 786.752, 395.378 790.726 C 399.235 795.278, 402.240 797.946, 403.500 797.937 C 404.600 797.930, 411.617 792.653, 419.093 786.212 C 434.398 773.025, 437.712 770.196, 444.524 764.500 C 449.458 760.374, 470.827 742.287, 491 725.162 C 520.241 700.339, 542.167 681.753, 551.946 673.500 C 557.811 668.550, 569.500 658.650, 577.923 651.500 C 586.345 644.350, 596.972 635.350, 601.538 631.500 C 606.104 627.650, 618.059 617.525, 628.105 609 C 638.151 600.475, 650.449 590.075, 655.435 585.889 C 675.681 568.892, 678.502 566.346, 678.798 564.808 C 678.975 563.892, 672.425 555.409, 663.554 545.063 C 654.999 535.086, 648.004 526.603, 648.009 526.211 C 648.014 525.820, 649.477 524.375, 651.259 523 C 654.885 520.203, 667.921 508.110, 672.279 503.500 C 681.928 493.295, 684.082 490.863, 688.662 485 C 737.879 421.996, 749.821 337.570, 720.099 262.748 C 700.322 212.963, 661.659 171.035, 612.500 146.061 C 594.834 137.087, 580.647 132.061, 559 127.109 C 525.425 119.428, 481.725 121.203, 447.654 131.631 C 445.962 132.149, 445.837 131.624, 446.154 125.348 L 446.500 118.500 249.220 118.248 C 91.920 118.046, 51.843 118.249, 51.463 119.248 M 66.677 133.657 C 65.828 134.505, 65.784 504.143, 66.631 510.325 L 67.272 515 122.216 515 L 177.160 515 186.330 507.268 C 199.567 496.106, 230.982 469.278, 234.500 466.130 C 236.150 464.654, 239.516 461.883, 241.979 459.973 C 246.154 456.736, 259.585 445.383, 278.500 429.103 C 288.005 420.923, 322.595 391.701, 339.500 377.571 C 346.100 372.054, 352.850 366.347, 354.500 364.888 C 358.483 361.366, 390.570 334.069, 405.502 321.500 C 412.036 316, 420.446 308.891, 424.191 305.703 L 431 299.906 431 216.453 L 431 133 249.167 133 C 149.158 133, 67.038 133.295, 66.677 133.657 M 492.500 139 C 479.422 140.263, 450.460 146.378, 446.744 148.661 C 446.328 148.917, 446.030 180.785, 446.081 219.480 L 446.175 289.834 456.837 302.171 C 470.683 318.191, 469.021 316.246, 489.585 340.500 C 499.378 352.050, 513.914 369.150, 521.887 378.500 C 529.861 387.850, 539.630 399.325, 543.595 404 C 555.985 418.607, 576.747 443.012, 586.981 455 C 598.703 468.730, 611.598 483.896, 626.328 501.273 L 637.154 514.046 641.327 510.789 C 643.622 508.998, 651.161 501.900, 658.080 495.016 C 715.480 437.910, 734.957 356.276, 709.364 280.073 C 695.984 240.234, 670.409 204.861, 636.857 179.791 C 627.618 172.887, 612.266 162.987, 610.826 163.004 C 610.646 163.006, 610.334 180.443, 610.131 201.754 C 609.929 223.064, 609.479 248.368, 609.131 257.985 L 608.500 275.471 604.500 276.121 C 602.300 276.478, 595.100 276.935, 588.500 277.135 L 576.500 277.500 576.802 244.500 C 576.969 226.350, 577.353 209.700, 577.655 207.500 C 578.478 201.521, 576.933 203.854, 570.701 218 C 567.672 224.875, 563.425 234.325, 561.264 239 C 559.103 243.675, 554.920 252.900, 551.969 259.500 C 549.018 266.100, 545.867 272.850, 544.967 274.500 L 543.331 277.500 527.787 277.775 L 512.243 278.050 498.371 243.056 C 490.742 223.810, 484.253 208.049, 483.951 208.032 C 483.649 208.014, 483.412 209.688, 483.423 211.750 C 483.466 219.745, 480.863 276.594, 480.378 278.250 C 479.917 279.823, 478.237 280, 463.782 280 L 447.698 280 448.328 270.250 C 448.675 264.887, 449.649 251.500, 450.492 240.500 C 451.335 229.500, 452.449 214.875, 452.968 208 C 454.960 181.615, 456.202 166.492, 456.396 166.285 C 456.556 166.114, 497.907 165.828, 502.737 165.965 C 503.962 166, 505.696 169.473, 508.442 177.395 C 509.225 179.653, 513.531 191.625, 518.011 204 C 522.491 216.375, 526.864 228.637, 527.730 231.250 C 529.106 235.401, 531 237.650, 531 235.132 C 531 234.654, 533.650 228.692, 536.889 221.882 C 540.128 215.072, 547.589 199.154, 553.470 186.509 C 559.350 173.864, 564.688 163.165, 565.331 162.734 C 565.974 162.303, 575.838 162.074, 587.251 162.225 C 598.664 162.376, 608.002 162.205, 608.001 161.844 C 607.998 159.742, 580.541 148.900, 565.113 144.909 C 542.852 139.152, 514.672 136.858, 492.500 139 M 388.371 164.765 C 387.750 165.169, 385.697 167.525, 383.808 170 C 366.037 193.282, 356.789 204.994, 356.201 204.963 C 355.816 204.943, 351.900 199.463, 347.500 192.785 C 343.100 186.107, 337.351 177.574, 334.724 173.822 L 329.948 167 311.949 167 L 293.950 167 292.992 169.522 C 292.118 171.821, 294.004 174.684, 314.266 201.816 L 336.500 231.587 335.859 245.544 C 335.506 253.220, 335.168 264.113, 335.109 269.750 L 335 280 351.750 279.969 C 373.129 279.928, 371.304 282.168, 372.731 254.228 L 373.817 232.956 380.702 224.228 C 425.386 167.584, 426.236 166.421, 424 164.990 C 422.258 163.876, 390.051 163.672, 388.371 164.765 M 222 167.425 C 189.323 173.245, 169.409 187.286, 161.890 209.810 C 158.780 219.123, 158.780 237.463, 161.890 247 C 168.347 266.805, 190.146 280.514, 220.973 284.156 C 237.125 286.064, 273.951 283.449, 277.240 280.160 C 278.353 279.047, 281.009 260.186, 280.309 258.362 C 279.512 256.286, 275.426 255.634, 270.709 256.830 C 259.171 259.757, 254.331 260.331, 240.500 260.412 C 223.853 260.510, 219.786 259.676, 211.465 254.457 C 201.210 248.026, 197.007 240.621, 196.883 228.760 C 196.680 209.441, 208.894 196.030, 231.738 190.491 C 240.012 188.484, 263.459 189.519, 273.997 192.356 C 282.573 194.664, 282.988 193.748, 280.810 177.334 C 279.607 168.275, 279.557 168.160, 276.546 167.540 C 269.837 166.157, 229.591 166.073, 222 167.425 M 655.183 296.006 C 638.682 299.495, 628 311.459, 628 326.452 C 628 361.583, 676.179 376.484, 694.457 347.006 C 705.172 329.725, 697.530 306.157, 678.577 298.033 C 672.993 295.639, 661.590 294.651, 655.183 296.006 M 514.636 298.780 C 514.371 299.209, 513.629 312.147, 512.987 327.530 C 512.345 342.914, 511.807 355.725, 511.792 356 C 511.638 358.700, 512.406 359, 519.473 359 L 526.945 359 527.223 344.750 L 527.500 330.500 529.341 333.876 L 531.181 337.251 538.485 336.783 C 546.517 336.267, 552.093 333.710, 557.434 328.092 C 560.168 325.217, 560.368 324.471, 560.368 317.161 C 560.368 301.101, 555.802 298.040, 531.809 298.016 C 522.629 298.007, 514.901 298.351, 514.636 298.780 M 571.621 298.804 C 571.165 299.542, 568.639 345.240, 568.542 354.500 L 568.500 358.500 577.500 358.500 L 586.500 358.500 587 343.773 L 587.500 329.046 593.500 342.157 C 601.695 360.065, 600.678 359, 609.588 359 C 615.209 359, 617.201 358.639, 617.621 357.544 C 617.929 356.743, 615.258 350.668, 611.686 344.044 C 607.282 335.876, 605.656 332, 606.635 332 C 607.430 332, 609.896 331.074, 612.115 329.941 C 620.270 325.781, 622.944 311.423, 616.855 304.488 C 611.734 298.656, 608.964 298, 589.437 298 C 579.912 298, 571.894 298.362, 571.621 298.804 M 531.704 309.678 C 528.955 310.134, 528.913 310.245, 529.204 316.321 L 529.500 322.500 534.554 322.795 C 540.264 323.129, 542.558 321.508, 543.550 316.434 C 544.604 311.049, 539.835 308.329, 531.704 309.678 M 590.250 309.763 L 587 310.127 587 316.447 C 587 323.418, 587.559 323.957, 594.827 323.986 C 599.347 324.005, 604.003 319.469, 603.291 315.741 C 602.384 310.998, 597.839 308.915, 590.250 309.763 M 657.429 310.837 C 636.969 320.411, 644.727 353.715, 666.262 348.752 C 679.109 345.792, 685.965 329.501, 679.569 317.133 C 675.863 309.967, 665.554 307.035, 657.429 310.837 M 433.404 318.755 C 423.325 327.337, 407.163 341.006, 399.572 347.369 C 396.861 349.641, 389.886 355.586, 384.072 360.579 C 378.257 365.572, 370.318 372.322, 366.430 375.579 C 362.541 378.836, 356.691 383.812, 353.430 386.637 C 350.168 389.463, 344.331 394.413, 340.457 397.637 C 336.584 400.862, 325.189 410.475, 315.136 419 C 305.083 427.525, 294.687 436.300, 292.035 438.500 C 289.383 440.700, 284.319 444.975, 280.782 448 C 274.846 453.076, 252.521 471.939, 233.608 487.857 C 229.267 491.511, 225.217 494.962, 224.608 495.527 C 223.998 496.092, 216.188 502.793, 207.250 510.417 C 198.313 518.042, 191 524.730, 191 525.278 C 191 525.827, 192.688 528.158, 194.750 530.458 C 201.871 538.400, 209.878 547.680, 215.131 554.079 C 218.030 557.611, 222.224 562.526, 224.451 565.003 C 226.678 567.480, 230.300 571.708, 232.500 574.400 C 236.932 579.822, 249.404 594.511, 269.519 618 C 288.085 639.679, 306.599 661.452, 312.478 668.517 C 315.215 671.808, 317.714 674.725, 318.031 675 C 318.515 675.422, 348.806 711.063, 359.979 724.359 C 361.893 726.637, 366.393 731.898, 369.979 736.051 C 373.566 740.205, 381 748.971, 386.500 755.532 C 392 762.093, 398.470 769.602, 400.877 772.220 L 405.253 776.978 411.377 771.745 C 414.745 768.867, 417.725 766.281, 418 765.998 C 418.440 765.545, 436.063 750.721, 445.916 742.515 C 447.887 740.873, 457.600 732.643, 467.500 724.226 C 477.400 715.809, 488.824 706.128, 492.887 702.711 C 496.949 699.295, 500.999 695.793, 501.887 694.930 C 503.579 693.283, 518.355 680.865, 525.390 675.177 C 527.651 673.350, 530.625 670.859, 532 669.643 C 535.510 666.537, 590.528 619.864, 607.022 606 C 628.084 588.296, 643.295 575.381, 645.500 573.330 C 646.600 572.307, 649.638 569.735, 652.250 567.615 C 654.862 565.494, 657 563.301, 657 562.740 C 657 562.180, 654.413 558.793, 651.250 555.214 C 648.087 551.634, 641.450 543.869, 636.500 537.957 C 623.926 522.940, 609.060 505.396, 592.051 485.500 C 584.057 476.150, 576.761 467.600, 575.837 466.500 C 574.286 464.653, 555.533 442.636, 523.500 405.054 C 516.350 396.665, 508.544 387.484, 506.153 384.651 C 503.762 381.818, 500.611 378.150, 499.151 376.500 C 497.691 374.850, 491.557 367.650, 485.520 360.500 C 479.483 353.350, 474.084 347.003, 473.522 346.396 C 472.960 345.788, 469.575 341.781, 466 337.490 C 456.305 325.855, 443.811 311.534, 443.114 311.255 C 442.776 311.121, 438.407 314.496, 433.404 318.755 M 382.768 480.212 C 380.958 481.569, 380.501 486.855, 377.991 535.500 C 377.452 545.950, 376.722 557.755, 376.369 561.733 C 375.387 572.796, 372.498 572, 413.622 572 L 449 572 449 563.559 C 449 558.916, 448.659 554.908, 448.243 554.650 C 447.827 554.393, 437.702 553.853, 425.743 553.451 L 404 552.719 404 543.859 L 404 535 418.750 534.812 C 439.368 534.549, 443.070 534.336, 443.998 533.357 C 444.444 532.886, 444.965 529.125, 445.155 525 L 445.500 517.500 425.077 516.743 C 413.844 516.327, 404.463 515.796, 404.231 515.564 C 403.999 515.332, 404.130 511.285, 404.523 506.571 L 405.237 498 428.501 498 L 451.765 498 452.479 490.382 C 453.565 478.790, 455.974 479.553, 417.209 479.212 C 391.711 478.988, 384.107 479.208, 382.768 480.212 M 473.600 479.838 C 472.689 481.312, 468.624 551.590, 468.530 567.500 L 468.500 572.500 496.500 572.419 C 526.738 572.332, 530.347 571.839, 541.381 566.289 C 557.338 558.262, 568.350 534.457, 565.129 514.951 C 561.947 495.685, 550.048 483.205, 531.918 480.120 C 524.297 478.823, 474.377 478.582, 473.600 479.838 M 299.281 482.219 C 298.722 482.923, 297.999 489.575, 297.675 497 C 296.881 515.194, 295.067 547.121, 294.097 560 C 293.661 565.775, 293.603 570.844, 293.966 571.263 C 294.329 571.683, 310.123 571.908, 329.063 571.763 L 363.500 571.500 363.801 564.521 C 364.328 552.289, 366.235 553.314, 342.047 552.826 C 330.509 552.593, 320.899 552.199, 320.691 551.951 C 320.484 551.703, 320.656 544.750, 321.075 536.500 C 321.494 528.250, 321.985 512.500, 322.168 501.500 L 322.500 481.500 311.398 481.219 C 303.287 481.013, 300.023 481.282, 299.281 482.219 M 497.549 499.250 C 497.335 499.938, 496.872 508.600, 496.519 518.500 C 496.167 528.400, 495.645 540.502, 495.359 545.393 L 494.840 554.286 506.180 553.786 C 528.497 552.801, 539.128 542.735, 539.225 522.500 C 539.284 510.113, 534.276 502.644, 523.833 499.543 C 517.268 497.593, 498.130 497.380, 497.549 499.250 M 827.137 642.369 C 813.824 647.187, 808.012 662.822, 814.685 675.868 C 824.756 695.561, 853.417 689.518, 854.825 667.404 C 855.427 657.947, 854.490 654.761, 849.457 649.163 C 842.953 641.929, 835.023 639.515, 827.137 642.369 M 625.363 646.250 C 610.713 656.041, 611.914 679.569, 627.437 686.866 C 645.020 695.131, 663.744 677.798, 657.509 659.027 C 652.686 644.506, 637.189 638.347, 625.363 646.250 M 677.500 644.659 C 656.024 655.961, 662.927 689, 686.764 689 C 709.576 689, 716.434 655.490, 695.790 644.903 C 691.189 642.543, 681.759 642.417, 677.500 644.659 M 723.360 646.348 C 704.691 659.213, 712.887 689, 735.097 689 C 749.937 689, 760.888 672.116, 755.352 657.770 C 750.129 644.236, 734.515 638.661, 723.360 646.348 M 775.500 644.659 C 758.047 653.843, 758.792 680.140, 776.718 687.652 C 797.593 696.399, 815.725 668.680, 800.896 650.690 C 794.932 643.454, 783.119 640.649, 775.500 644.659 M 774.227 697.061 C 767.206 700.628, 761 710.216, 761 717.497 C 761 727.251, 768.745 737.998, 777.639 740.583 C 795.849 745.877, 811.295 725.387, 802.557 707.526 C 797.198 696.574, 784.454 691.866, 774.227 697.061 M 583.500 697.439 C 582.950 697.651, 581.251 698.101, 579.725 698.438 C 571.635 700.224, 565.490 709.985, 565.520 721 C 565.590 746.947, 598.842 752.539, 607.480 728.056 C 612.404 714.101, 603.177 699.050, 588.753 697.508 C 586.414 697.258, 584.050 697.227, 583.500 697.439 M 631.365 697.902 C 614.118 702.293, 609.271 726.516, 623.245 738.477 C 635.192 748.704, 652.001 743.587, 657.480 728.056 C 663.415 711.235, 648.163 693.625, 631.365 697.902 M 679.852 698.391 C 660.964 705.138, 659.263 732.474, 677.176 741.400 C 700.138 752.843, 719.604 720.266, 700.231 702.817 C 694.122 697.314, 687.122 695.794, 679.852 698.391 M 729.256 697.924 C 723.662 699.339, 717.463 704.907, 714.885 710.833 C 709.754 722.627, 714.924 736.454, 726.501 741.895 C 743.398 749.838, 761.982 731.372, 755.521 713.060 C 751.488 701.628, 740.239 695.146, 729.256 697.924 M 826.625 698.412 C 810.578 704.368, 806.768 726.473, 819.769 738.183 C 828.527 746.072, 840.162 745.684, 848.625 737.221 C 857.411 728.435, 857.469 712.623, 848.747 703.900 C 842.725 697.879, 833.935 695.698, 826.625 698.412 M 534.138 750.166 C 520.232 752.614, 512.692 769.674, 519.428 783.443 C 529.972 804.993, 560.328 796.913, 560.188 772.595 C 560.101 757.624, 548.503 747.638, 534.138 750.166 M 582.500 749.938 C 572.510 752.361, 566.089 760.019, 565.247 770.516 C 563.159 796.524, 596.187 805.916, 606.637 782.286 C 614.135 765.331, 599.561 745.799, 582.500 749.938 M 681.345 750.147 C 664.752 753.873, 658.958 779.104, 672.110 790.362 C 692.021 807.405, 719.367 780.581, 704.034 759.048 C 700.162 753.609, 690.627 748.367, 686 749.132 C 685.725 749.177, 683.630 749.634, 681.345 750.147 M 732 749.989 C 714.984 753.164, 708.188 774.514, 719.855 788.143 C 727.775 797.396, 740.029 798.554, 749.279 790.924 C 767.135 776.195, 754.316 745.826, 732 749.989 M 828.117 750.183 C 815.804 752.957, 808.221 770.167, 813.879 782.500 C 824.058 804.690, 854.892 797.726, 854.978 773.218 C 855.034 757.344, 842.819 746.869, 828.117 750.183 M 625.363 754.250 C 611.868 763.269, 611.566 783.778, 624.786 793.317 C 636.393 801.692, 652.514 795.680, 657.472 781.128 C 664.267 761.187, 642.387 742.872, 625.363 754.250 M 775.500 752.659 C 758.675 761.513, 758.650 787.485, 775.459 795.120 C 796.316 804.594, 815.763 778.266, 801.611 759.713 C 795.422 751.598, 783.590 748.402, 775.500 752.659" stroke="none" fill="#ffffff" fill-rule="evenodd"/>
</svg>