<svg xmlns="http://www.w3.org/2000/svg" width="400" height="240" viewBox="0 0 400 240" version="1.1">
	<path d="M 124 51.884 L 124 91.768 117.750 89.167 C 100.113 81.828, 76.751 89.035, 65.659 105.236 C 41.175 140.998, 79.244 186.256, 119.349 169.065 C 123.962 167.087, 124 167.087, 124 169.036 C 124 170.874, 124.736 171, 135.500 171 L 147 171 147 91.500 L 147 12 135.500 12 L 124 12 124 51.884 M 162 91.500 L 162 171 173.500 171 C 184.264 171, 185 170.874, 185 169.036 C 185 167.087, 185.038 167.087, 189.651 169.065 C 223.402 183.532, 258.630 153.720, 249.448 118.460 C 242.378 91.308, 211.662 78.442, 185.750 91.781 C 185.338 91.993, 185 74.129, 185 52.083 L 185 12 173.500 12 L 162 12 162 91.500 M 332.169 72.512 C 327.777 78.096, 334.998 85.002, 340 80 C 342.654 77.346, 342.552 73.500, 339.777 71.557 C 336.623 69.347, 334.443 69.621, 332.169 72.512 M 333.200 72.200 C 330.466 74.934, 332.224 80, 335.907 80 C 340.667 80, 342.658 75.801, 339.429 72.571 C 337.557 70.700, 334.861 70.539, 333.200 72.200 M 334.015 76.250 C 334.026 78.589, 334.285 79.098, 334.939 78.064 C 335.648 76.944, 336.160 76.888, 337.272 77.811 C 338.448 78.787, 338.711 78.471, 338.781 75.996 C 338.853 73.466, 338.488 73, 336.433 73 C 334.352 73, 334.002 73.470, 334.015 76.250 M 264 96.663 L 264 108.585 268.381 109.757 C 284.716 114.126, 288.314 136.138, 274.160 145.113 C 271.657 146.701, 268.347 148, 266.804 148 L 264 148 264 160 L 264 172 268.290 172 C 277.686 172, 293.842 165.182, 295.657 160.451 C 296.098 159.302, 296.960 159.636, 299.647 161.995 C 306.233 167.777, 317.533 172, 326.423 172 L 329.747 172 329.624 160.402 L 329.500 148.804 324.611 146.946 C 305.338 139.620, 306.880 113.374, 326.819 109.386 L 330 108.750 330 97.344 C 330 83.869, 330.268 84.146, 319.355 86.371 C 310.659 88.144, 301.932 93.197, 299.165 98.060 C 297.102 101.687, 297.047 101.682, 294.046 97.637 C 288.938 90.748, 280.879 86.651, 270.022 85.423 L 264 84.742 264 96.663 M 92.500 111.659 C 78.295 119.134, 77.072 138.785, 90.337 146.411 C 104.938 154.804, 120.876 145.093, 119.816 128.449 C 118.922 114.407, 104.326 105.435, 92.500 111.659 M 199.347 112.002 C 187.054 118.252, 185.301 137.073, 196.241 145.350 C 212.934 157.979, 235.238 139.590, 225.750 121.020 C 220.662 111.060, 209.020 107.084, 199.347 112.002 M 171.269 190.160 C 165.890 199.797, 159 212.798, 159 213.310 C 159 213.587, 159.816 213.599, 160.814 213.338 C 161.874 213.061, 164.849 208.671, 167.967 202.782 L 173.306 192.700 175.560 197.100 L 177.814 201.500 173.735 202 C 167.397 202.777, 167.717 204.999, 174.167 205.003 C 179.305 205.005, 179.573 205.142, 181.500 208.753 C 183.087 211.726, 184.166 212.564, 186.726 212.812 L 189.952 213.123 183.333 200.312 C 174.561 183.332, 174.914 183.629, 171.269 190.160 M 280.616 187.250 C 278.321 190.860, 267 212.270, 267 213.001 C 267 215.396, 270.539 212.944, 272.293 209.333 C 274.389 205.019, 274.423 205, 279.783 205 C 286.192 205, 286.663 202.795, 280.422 202 L 276.500 201.500 278.663 197.214 L 280.826 192.929 286.136 202.883 C 290.652 211.352, 291.860 212.899, 294.223 213.246 C 295.750 213.470, 297 213.269, 297 212.799 C 297 211.755, 282.983 185, 282.436 185 C 282.221 185, 281.402 186.012, 280.616 187.250 M 127.222 199.664 L 127.500 213.328 130.250 213.447 C 132.971 213.565, 133 213.499, 133 207.283 L 133 201 140.574 201 L 148.148 201 147.985 205.750 C 147.742 212.838, 147.798 213, 150.500 213 L 153 213 153 199.500 L 153 186 150.156 186 C 147.319 186, 147.313 186.014, 147.565 192 L 147.818 198 140.409 198 L 133 198 133 192 L 133 186 129.972 186 L 126.944 186 127.222 199.664 M 195.222 199.750 L 195.500 213.500 198.250 213.546 C 200.964 213.592, 201 213.510, 201 207.296 C 201 199.038, 202.849 198.946, 209.184 206.891 C 213.040 211.726, 214.499 212.839, 217.434 213.182 C 222.024 213.718, 221.969 213.487, 215.879 206.654 C 213.063 203.494, 210.925 200.765, 211.129 200.590 C 211.333 200.414, 212.534 199.733, 213.798 199.075 C 215.062 198.417, 216.524 196.751, 217.048 195.374 C 219.222 189.656, 213.354 186, 202.004 186 L 194.944 186 195.222 199.750 M 227 200.083 C 227 210.904, 227.290 214.071, 228.250 213.752 C 229.117 213.465, 229.588 210.166, 229.787 202.989 L 230.074 192.641 236.130 203.322 C 239.460 209.197, 242.585 213.756, 243.073 213.455 C 243.562 213.153, 246.333 208.648, 249.231 203.444 L 254.500 193.983 255 203.173 C 255.490 212.186, 255.553 212.377, 258.250 213.095 L 261 213.827 261 199.914 L 261 186 258.250 186.013 C 255.807 186.024, 254.885 187.136, 250 195.960 C 243.698 207.344, 244.705 207.480, 237.275 194.250 C 233.182 186.961, 232.313 186, 229.821 186 L 227 186 227 200.083 M 303 199.393 C 303 210.246, 303.278 212.893, 304.468 213.349 C 306.638 214.182, 306.798 213.407, 306.642 202.803 L 306.500 193.107 317.260 203.710 C 323.178 209.542, 328.271 214.062, 328.579 213.754 C 328.887 213.446, 329.286 207.052, 329.466 199.544 C 329.759 187.305, 329.622 185.926, 328.146 186.207 C 326.804 186.463, 326.408 188.230, 326 195.787 L 325.500 205.053 316.020 195.527 C 303.151 182.594, 303 182.639, 303 199.393 M 201 194 C 201 198.800, 201.111 199, 203.777 199 C 207.499 199, 211 196.403, 211 193.643 C 211 190.402, 209.127 189, 204.800 189 L 201 189 201 194 M 104.200 206.750 C 104.519 212.867, 107.004 214.902, 110.555 211.954 C 114.059 209.047, 110.645 203.048, 106.412 204.672 C 105.013 205.209, 104.788 204.919, 105.246 203.169 C 105.558 201.976, 105.382 201, 104.856 201 C 104.324 201, 104.033 203.549, 104.200 206.750 M 114.515 208.029 C 115.860 210.631, 115.969 211.773, 115.060 213.768 C 112.817 218.691, 114.590 216.737, 117.636 210.930 C 119.346 207.668, 120.425 205, 120.033 205 C 119.642 205, 118.747 206.238, 118.046 207.750 C 116.805 210.425, 116.749 210.442, 115.955 208.352 C 115.507 207.171, 114.621 205.884, 113.987 205.492 C 113.354 205.100, 113.591 206.242, 114.515 208.029 M 105.362 207.500 C 104.569 209.564, 105.644 212, 107.346 212 C 109.348 212, 111.330 209.302, 110.643 207.513 C 109.894 205.559, 106.110 205.550, 105.362 207.500" stroke="none" fill="#ffffff" fill-rule="evenodd"/>
</svg>