<?xml version="1.0" encoding="UTF-8"?>
<svg xmlns="http://www.w3.org/2000/svg" xmlns:xlink="http://www.w3.org/1999/xlink" width="316pt" height="500pt" viewBox="0 0 316 500" version="1.1">
<g id="surface1">

<path fill="#ffffff" style=" stroke:none;fill-rule:evenodd;fill:#ffffff;fill-opacity:1;" d="M 85.097656 418.613281 L 116.394531 418.613281 L 116.394531 159.601563 L 91.683594 159.601563 C 87.367188 198.421875 66.140625 211.324219 45.070313 211.113281 L 45.070313 250.394531 L 85.097656 250.394531 L 85.097656 418.613281 "/>
<path fill="#ffffff" style=" stroke:none;fill-rule:evenodd;fill:#ffffff;fill-opacity:1;" d="M 159.132813 137.0625 L 165.574219 92.542969 L 201.953125 118.957031 L 175.375 83.738281 L 274.542969 75.933594 L 175.375 68.128906 L 201.953125 32.910156 L 165.574219 59.324219 L 159.132813 14.804688 L 152.6875 59.324219 L 116.3125 32.910156 L 142.886719 68.128906 L 43.722656 73.484375 L 142.886719 83.738281 L 116.3125 116.507813 L 152.6875 92.542969 L 159.132813 137.0625 "/>
<path fill="#ffffff" style=" stroke:none;fill-rule:evenodd;fill:#ffffff;fill-opacity:1;" d="M 214.574219 424.152344 C 279.871094 424.152344 292.261719 302.90625 245.28125 279.203125 C 286.484375 241.820313 265.007813 153.488281 214.574219 153.488281 C 164.144531 153.488281 142.667969 241.820313 183.871094 279.203125 C 136.886719 302.90625 149.28125 424.152344 214.574219 424.152344 Z M 214.574219 192.890625 C 227.226563 192.890625 237.476563 208.964844 237.476563 228.796875 C 237.476563 248.625 227.226563 264.699219 214.574219 264.699219 C 201.925781 264.699219 191.675781 248.625 191.675781 228.796875 C 191.675781 208.964844 201.925781 192.890625 214.574219 192.890625 Z M 214.574219 299.644531 C 229.566406 299.644531 241.71875 318.695313 241.71875 342.199219 C 241.71875 365.699219 229.566406 384.753906 214.574219 384.753906 C 199.585938 384.753906 187.433594 365.699219 187.433594 342.199219 C 187.433594 318.695313 199.585938 299.644531 214.574219 299.644531 "/>
<path fill="#ffffff" style=" stroke:none;fill-rule:evenodd;fill:#ffffff;fill-opacity:1;" d="M 41.253906 459.863281 L 217.558594 459.863281 L 217.558594 466.316406 L 41.253906 466.316406 Z M 242.902344 459.863281 L 273.578125 459.863281 L 273.578125 466.316406 L 242.902344 466.316406 L 242.902344 459.863281 "/>
<path fill="#ffffff" style=" stroke:none;fill-rule:nonzero;fill:#ffffff;fill-opacity:1;" d="M 102.777344 503.6875 C 99.566406 503.6875 98.96875 500.820313 98.96875 496.8125 L 98.96875 487.023438 C 98.96875 483.324219 99.589844 481.234375 102.96875 481.234375 C 106.449219 481.234375 107.039063 483.324219 107.039063 487.023438 L 112.070313 487.023438 C 112.070313 480.910156 109.65625 476.933594 102.96875 476.933594 C 95.765625 476.933594 93.199219 481.574219 93.199219 488.113281 L 93.199219 495.828125 C 93.199219 502.996094 94.960938 507.996094 102.777344 507.996094 C 105.488281 507.996094 106.855469 506.714844 107.5625 504.910156 L 108.765625 507.6875 L 112.351563 507.6875 L 112.351563 491.277344 L 102.777344 491.277344 L 102.777344 495.722656 L 106.828125 495.722656 L 106.828125 496.8125 C 106.828125 500.785156 105.691406 503.6875 102.777344 503.6875 "/>
<path fill="#ffffff" style=" stroke:none;fill-rule:nonzero;fill:#ffffff;fill-opacity:1;" d="M 273.578125 560.582031 L 273.578125 536.945313 C 273.578125 524.3125 268.277344 519.75 253.753906 519.75 L 238.386719 519.75 L 238.386719 579.933594 L 253.675781 579.933594 C 268.460938 579.933594 273.578125 573.386719 273.578125 560.582031 Z M 263.667969 543.003906 L 263.667969 553.542969 C 263.667969 562.371094 264.214844 571.03125 253.753906 571.03125 L 248.296875 571.03125 L 248.296875 527.660156 L 253.558594 527.660156 C 263.402344 527.660156 263.667969 534.824219 263.667969 543.003906 "/>
<path fill="#ffffff" style=" stroke:none;fill-rule:nonzero;fill:#ffffff;fill-opacity:1;" d="M 171.160156 558.4375 L 171.160156 519.75 L 161.554688 519.75 L 161.554688 558.4375 C 161.554688 566.382813 161.660156 572.011719 154.886719 572.011719 C 148.515625 572.011719 148.214844 566.394531 148.214844 558.4375 L 148.214844 519.75 L 138.609375 519.75 L 138.609375 558.4375 C 138.609375 571.703125 142.234375 580.574219 154.886719 580.574219 C 167.535156 580.574219 171.160156 571.703125 171.160156 558.4375 "/>
<path fill="#ffffff" style=" stroke:none;fill-rule:nonzero;fill:#ffffff;fill-opacity:1;" d="M 106.523438 519.144531 C 94.847656 519.144531 89.097656 526.507813 89.097656 538.757813 L 89.097656 560.582031 C 89.097656 572.84375 94.847656 580.539063 106.523438 580.539063 C 118.089844 580.539063 123.9375 572.675781 123.9375 560.582031 L 123.9375 538.757813 C 123.9375 526.675781 118.089844 519.144531 106.523438 519.144531 Z M 106.523438 526.191406 C 110.980469 526.191406 114.085938 531.148438 114.085938 537.59375 L 114.085938 561.757813 C 114.085938 568.1875 110.679688 572.253906 106.523438 572.253906 C 102.363281 572.253906 98.949219 568.199219 98.949219 561.757813 L 98.949219 537.59375 C 98.949219 531.140625 102.0625 526.191406 106.523438 526.191406 "/>
<path fill="#ffffff" style=" stroke:none;fill-rule:nonzero;fill:#ffffff;fill-opacity:1;" d="M 140.40625 493.953125 L 140.40625 507.75 L 146.359375 507.75 L 146.359375 477.515625 L 140.40625 477.515625 L 140.40625 489.003906 L 132.730469 489.003906 L 132.730469 477.515625 L 126.777344 477.515625 L 126.777344 507.75 L 132.730469 507.75 L 132.730469 493.953125 L 140.40625 493.953125 "/>
<path fill="#ffffff" style=" stroke:none;fill-rule:nonzero;fill:#ffffff;fill-opacity:1;" d="M 72.292969 477.515625 L 72.292969 507.75 L 77.511719 507.75 L 77.511719 477.515625 L 72.292969 477.515625 "/>
<path fill="#ffffff" style=" stroke:none;fill-rule:nonzero;fill:#ffffff;fill-opacity:1;" d="M 178.414063 477.515625 L 160.140625 477.515625 L 160.140625 482.585938 L 166.425781 482.585938 L 166.425781 507.75 L 172.136719 507.75 L 172.136719 482.585938 L 178.414063 482.585938 L 178.414063 477.515625 "/>
<path fill="#ffffff" style=" stroke:none;fill-rule:nonzero;fill:#ffffff;fill-opacity:1;" d="M 207.761719 494.199219 L 207.761719 489.496094 L 198.132813 489.496094 L 198.132813 482.464844 L 208.773438 482.464844 L 208.773438 477.515625 L 192.195313 477.515625 L 192.195313 507.75 L 209.019531 507.75 L 209.019531 503.039063 L 198.132813 503.039063 L 198.132813 494.199219 L 207.761719 494.199219 "/>
<path fill="#ffffff" style=" stroke:none;fill-rule:nonzero;fill:#ffffff;fill-opacity:1;" d="M 238.367188 494.199219 L 238.367188 489.496094 L 228.738281 489.496094 L 228.738281 482.464844 L 239.378906 482.464844 L 239.378906 477.515625 L 222.800781 477.515625 L 222.800781 507.75 L 239.621094 507.75 L 239.621094 503.039063 L 228.738281 503.039063 L 228.738281 494.199219 L 238.367188 494.199219 "/>
<path fill="#ffffff" style=" stroke:none;fill-rule:nonzero;fill:#ffffff;fill-opacity:1;" d="M 56.824219 494.199219 L 56.824219 489.496094 L 47.191406 489.496094 L 47.191406 482.464844 L 57.832031 482.464844 L 57.832031 477.515625 L 41.253906 477.515625 L 41.253906 507.75 L 58.078125 507.75 L 58.078125 503.039063 L 47.191406 503.039063 L 47.191406 494.199219 L 56.824219 494.199219 "/>
<path fill="#ffffff" style=" stroke:none;fill-rule:nonzero;fill:#ffffff;fill-opacity:1;" d="M 266.625 507.75 L 273.578125 507.75 L 273.578125 477.515625 L 267.925781 477.515625 L 267.925781 495.964844 L 259.996094 477.515625 L 253.796875 477.515625 L 253.796875 507.75 L 259.449219 507.75 L 259.449219 488.375 L 266.625 507.75 "/>
<path fill="#ffffff" style=" stroke:none;fill-rule:nonzero;fill:#ffffff;fill-opacity:1;" d="M 210.121094 579.933594 L 222.492188 579.933594 L 222.492188 519.75 L 212.4375 519.75 L 212.4375 556.472656 L 198.332031 519.75 L 187.300781 519.75 L 187.300781 579.933594 L 197.355469 579.933594 L 197.355469 541.363281 L 210.121094 579.933594 "/>
<path fill="#ffffff" style=" stroke:none;fill-rule:evenodd;fill:#ffffff;fill-opacity:1;" d="M 75.492188 534.332031 C 75.503906 533.035156 75.484375 530.71875 75.167969 528.859375 C 74.855469 527 74.25 525.601563 73.257813 524.296875 C 72.269531 522.992188 70.890625 521.78125 69.480469 520.9375 C 68.070313 520.09375 66.628906 519.617188 64.6875 519.210938 C 62.746094 518.804688 60.300781 518.464844 57.796875 518.609375 C 55.289063 518.757813 52.71875 519.386719 50.789063 520.265625 C 48.855469 521.140625 47.5625 522.261719 46.46875 523.511719 C 45.375 524.761719 44.476563 526.144531 43.765625 527.71875 C 43.054688 529.296875 42.535156 531.070313 42.316406 533.117188 C 42.09375 535.164063 42.179688 537.488281 42.417969 539.492188 C 42.660156 541.5 43.054688 543.1875 43.828125 544.859375 C 44.601563 546.53125 45.75 548.1875 47.472656 549.617188 C 49.195313 551.046875 51.492188 552.25 53.914063 553.40625 C 56.335938 554.5625 58.882813 555.667969 60.730469 556.722656 C 62.578125 557.78125 63.726563 558.78125 64.511719 559.835938 C 65.292969 560.890625 65.710938 561.996094 65.855469 563.25 C 66.003906 564.503906 65.878906 565.902344 65.429688 567.019531 C 64.980469 568.136719 64.207031 568.972656 63.382813 569.554688 C 62.558594 570.140625 61.679688 570.472656 60.628906 570.609375 C 59.574219 570.746094 58.34375 570.683594 57.28125 570.421875 C 56.214844 570.160156 55.320313 569.703125 54.660156 569.167969 C 54.003906 568.636719 53.585938 568.03125 53.300781 567.34375 C 53.019531 566.652344 52.875 565.882813 52.8125 564.378906 C 52.761719 563.113281 52.765625 561.335938 52.777344 560.136719 L 41.253906 560.136719 L 41.253906 563.992188 C 41.253906 565.464844 41.253906 566.757813 41.390625 567.9375 C 41.527344 569.117188 41.796875 570.183594 42.300781 571.339844 C 42.800781 572.5 43.535156 573.753906 44.578125 574.945313 C 45.625 576.132813 46.980469 577.261719 48.714844 578.074219 C 50.449219 578.890625 52.554688 579.390625 54.507813 579.75 C 56.460938 580.105469 58.257813 580.324219 60.34375 580.25 C 62.433594 580.175781 64.8125 579.816406 66.941406 579.070313 C 69.074219 578.324219 70.953125 577.199219 72.507813 575.714844 C 74.0625 574.234375 75.292969 572.394531 76.128906 570.277344 C 76.964844 568.15625 77.40625 565.753906 77.53125 563.363281 C 77.65625 560.972656 77.46875 558.59375 77.019531 556.671875 C 76.570313 554.75 75.859375 553.289063 74.773438 551.921875 C 73.6875 550.554688 72.226563 549.28125 70.566406 548.207031 C 68.90625 547.128906 67.046875 546.253906 64.90625 545.15625 C 62.765625 544.0625 60.34375 542.746094 58.488281 541.617188 C 56.628906 540.488281 55.335938 539.546875 54.460938 538.460938 C 53.585938 537.375 53.125 536.140625 52.980469 534.835938 C 52.832031 533.535156 52.996094 532.15625 53.371094 531.070313 C 53.746094 529.988281 54.332031 529.195313 55.03125 528.578125 C 55.730469 527.960938 56.542969 527.523438 57.472656 527.304688 C 58.402344 527.085938 59.445313 527.085938 60.363281 527.210938 C 61.285156 527.335938 62.078125 527.585938 62.777344 528.066406 C 63.476563 528.546875 64.082031 529.257813 64.5 530.03125 C 64.917969 530.800781 65.148438 531.636719 65.210938 532.910156 C 65.25 533.761719 65.21875 534.804688 65.175781 535.785156 L 75.457031 535.785156 C 75.46875 535.539063 75.488281 535.128906 75.492188 534.332031 "/>
<path fill="#ffffff" style=" stroke:none;fill-rule:nonzero;fill:#ffffff;fill-opacity:1;" d="M 230.644531 446.6875 C 232.289063 446.6875 233.898438 447.105469 235.46875 447.953125 C 237.035156 448.796875 238.261719 450.011719 239.136719 451.582031 C 240.011719 453.160156 240.449219 454.800781 240.449219 456.507813 C 240.449219 458.199219 240.019531 459.828125 239.152344 461.386719 C 238.292969 462.949219 237.085938 464.160156 235.527344 465.023438 C 233.96875 465.886719 232.339844 466.316406 230.644531 466.316406 C 228.941406 466.316406 227.3125 465.886719 225.753906 465.023438 C 224.195313 464.160156 222.984375 462.949219 222.117188 461.386719 C 221.253906 459.828125 220.816406 458.199219 220.816406 456.507813 C 220.816406 454.800781 221.257813 453.160156 222.136719 451.582031 C 223.019531 450.011719 224.246094 448.796875 225.8125 447.953125 C 227.382813 447.105469 228.992188 446.6875 230.644531 446.6875 Z M 230.644531 448.308594 C 229.261719 448.308594 227.917969 448.664063 226.613281 449.371094 C 225.304688 450.078125 224.285156 451.089844 223.546875 452.402344 C 222.8125 453.71875 222.441406 455.085938 222.441406 456.507813 C 222.441406 457.921875 222.808594 459.277344 223.53125 460.574219 C 224.253906 461.871094 225.265625 462.882813 226.566406 463.605469 C 227.867188 464.328125 229.226563 464.691406 230.644531 464.691406 C 232.054688 464.691406 233.414063 464.328125 234.714844 463.605469 C 236.015625 462.882813 237.027344 461.871094 237.746094 460.574219 C 238.464844 459.277344 238.824219 457.921875 238.824219 456.507813 C 238.824219 455.085938 238.457031 453.71875 237.726563 452.402344 C 236.992188 451.089844 235.972656 450.078125 234.660156 449.371094 C 233.351563 448.664063 232.011719 448.308594 230.644531 448.308594 Z M 226.332031 461.921875 L 226.332031 451.375 L 229.964844 451.375 C 231.207031 451.375 232.105469 451.472656 232.660156 451.667969 C 233.21875 451.863281 233.65625 452.199219 233.992188 452.6875 C 234.320313 453.171875 234.484375 453.6875 234.484375 454.234375 C 234.484375 455 234.207031 455.675781 233.652344 456.246094 C 233.101563 456.816406 232.371094 457.136719 231.453125 457.207031 C 231.828125 457.363281 232.128906 457.550781 232.351563 457.765625 C 232.777344 458.179688 233.296875 458.878906 233.914063 459.859375 L 235.203125 461.921875 L 233.132813 461.921875 L 232.191406 460.261719 C 231.453125 458.953125 230.855469 458.132813 230.402344 457.804688 C 230.09375 457.5625 229.640625 457.441406 229.039063 457.445313 L 228.035156 457.445313 L 228.035156 461.921875 Z M 228.035156 455.980469 L 230.105469 455.980469 C 231.097656 455.980469 231.769531 455.835938 232.128906 455.542969 C 232.488281 455.25 232.671875 454.859375 232.671875 454.378906 C 232.671875 454.070313 232.582031 453.789063 232.410156 453.546875 C 232.238281 453.296875 231.996094 453.113281 231.691406 452.996094 C 231.378906 452.875 230.8125 452.8125 229.976563 452.8125 L 228.035156 452.8125 L 228.035156 455.980469 "/>
</g>
</svg>
