<svg xmlns="http://www.w3.org/2000/svg" width="1031" height="2000" viewBox="0 0 1031 2000" version="1.1">
	<path d="M 518.562 49.148 C 518.250 50.992, 517.085 58.800, 515.974 66.500 C 514.862 74.200, 511.674 96.250, 508.890 115.500 C 506.106 134.750, 502.583 159.171, 501.062 169.769 C 499.540 180.367, 498.104 189.229, 497.870 189.464 C 497.636 189.698, 471.171 170.787, 439.059 147.441 C 406.948 124.094, 380.488 105.178, 380.260 105.407 C 380.032 105.635, 398.975 131.174, 422.357 162.161 C 456.338 207.195, 464.528 218.626, 463.175 219.128 C 462.244 219.474, 451.137 220.273, 438.491 220.903 C 425.846 221.534, 407.625 222.490, 398 223.029 C 388.375 223.567, 372.062 224.454, 361.750 224.999 C 351.437 225.545, 334.787 226.445, 324.750 227 C 314.712 227.555, 298.105 228.453, 287.845 228.995 C 277.585 229.537, 260.710 230.449, 250.345 231.022 C 228.940 232.204, 206.181 233.420, 175 235.047 C 163.175 235.664, 151.025 236.487, 148 236.875 C 141.828 237.669, 137.726 237.098, 185 242.027 C 195.725 243.145, 208.775 244.508, 214 245.057 C 224.609 246.171, 271.415 251.004, 300.500 253.990 C 310.950 255.063, 324 256.417, 329.500 257 C 335 257.583, 348.050 258.933, 358.500 260 C 368.950 261.067, 382 262.417, 387.500 263 C 396.440 263.947, 415.977 265.958, 447 269.123 C 452.775 269.712, 459.219 270.488, 461.320 270.847 L 465.140 271.500 460.320 277.500 C 452.872 286.771, 391.289 362.688, 385.311 369.967 C 382.390 373.525, 380 376.769, 380 377.177 C 380 377.917, 394.208 368.713, 450.714 331.372 C 493.379 303.177, 497.128 300.795, 497.788 301.454 C 498.113 301.780, 501.408 323.073, 505.109 348.773 C 508.811 374.473, 513.205 404.950, 514.875 416.500 C 516.545 428.050, 518.064 438.720, 518.251 440.212 C 518.797 444.569, 519.681 444.395, 520.427 439.784 C 521.432 433.569, 536.766 327.720, 538.760 313.229 C 540.030 304.001, 540.774 301.083, 541.760 301.461 C 542.865 301.885, 605.036 346.777, 646.491 377.084 C 653.087 381.905, 658.647 385.686, 658.848 385.485 C 659.210 385.123, 654.153 378.342, 601.208 308.183 C 586.134 288.209, 573.986 271.681, 574.212 271.455 C 574.438 271.229, 582.920 270.375, 593.061 269.558 C 625.956 266.907, 637.272 266.009, 650.500 265 C 663.141 264.036, 677.422 262.903, 701 260.993 C 707.325 260.481, 718.800 259.584, 726.500 259 C 734.200 258.416, 745.675 257.516, 752 257.001 C 758.325 256.485, 775.425 255.132, 790 253.994 C 804.575 252.856, 822.125 251.483, 829 250.943 C 835.875 250.403, 847.350 249.506, 854.500 248.949 C 861.650 248.392, 872.675 247.508, 879 246.984 C 885.325 246.460, 891.850 245.976, 893.500 245.909 C 900.734 245.612, 887.238 243.997, 861 242.018 C 845.875 240.877, 828.325 239.520, 822 239.003 C 815.675 238.486, 804.425 237.599, 797 237.032 C 789.575 236.465, 772.025 235.093, 758 233.982 C 733.273 232.024, 721.126 231.067, 695 229.018 C 688.125 228.478, 671.250 227.143, 657.500 226.050 C 643.750 224.957, 619.675 223.093, 604 221.909 C 588.325 220.724, 575.152 219.440, 574.727 219.055 C 574.302 218.670, 580.403 209.837, 588.285 199.427 C 637.756 134.086, 658.996 105.663, 658.628 105.295 C 658.397 105.064, 632.174 123.801, 600.354 146.931 C 568.534 170.062, 542.050 189.008, 541.500 189.033 C 540.944 189.058, 538.435 174.742, 535.849 156.789 C 524.074 75.054, 519.860 46.527, 519.509 46.175 C 519.300 45.966, 518.874 47.304, 518.562 49.148 M 688.500 498.607 C 639.874 503.616, 597.449 533.259, 567.944 582.840 C 523.105 658.190, 516.326 765.370, 551.539 842.191 C 562.493 866.087, 576.879 887.021, 593.965 903.925 C 597.248 907.173, 598.943 909.519, 598.189 909.770 C 595.376 910.708, 579.109 922.069, 573.500 927.013 C 504.806 987.564, 486.563 1133.823, 533.117 1250.768 C 567.912 1338.172, 630.298 1385.542, 706.866 1382.695 C 749.228 1381.120, 783.970 1365.386, 815.373 1333.554 C 911.003 1236.615, 921.037 1021.760, 834.040 933.843 C 824.076 923.774, 808.175 911.558, 802.622 909.707 C 802.074 909.525, 804.336 906.664, 807.650 903.350 C 863.785 847.215, 885.525 752.287, 863.494 659.500 C 843.302 574.458, 791.624 514.371, 727.129 500.946 C 718.042 499.055, 696.701 497.762, 688.500 498.607 M 298.621 520.750 C 298.325 522.263, 297.574 527.100, 296.951 531.500 C 284.158 621.911, 234.169 680.017, 164.500 685.458 C 160.100 685.801, 154.363 686.331, 151.750 686.635 L 147 687.188 147 751.094 L 147 815 211.998 815 L 276.996 815 277.248 1089.750 L 277.500 1364.500 328.750 1364.759 L 380 1365.018 380 941.509 L 380 518 339.579 518 L 299.159 518 298.621 520.750 M 688.585 629.065 C 643.433 640.279, 614.746 716.758, 630.435 784.093 C 648.003 859.496, 707.125 885.514, 747.011 835.395 C 795.179 774.870, 776.835 651.656, 716.500 630.451 C 710.681 628.406, 694.477 627.602, 688.585 629.065 M 683.998 978.869 C 625.911 997.463, 595.014 1096.826, 621.999 1178.259 C 646.564 1252.386, 706.627 1276.164, 750.261 1229.035 C 787.078 1189.270, 799.079 1113.400, 778.502 1050.500 C 766.606 1014.137, 741.307 985.264, 715.436 978.525 C 707.350 976.419, 691.096 976.597, 683.998 978.869 M 743.324 1457.375 C 710.905 1468.016, 713.864 1513.204, 747.440 1520.247 C 771.456 1525.284, 791.816 1500.293, 782.967 1476.640 C 777.256 1461.377, 758.662 1452.340, 743.324 1457.375 M 744.718 1463.437 C 731.664 1468.094, 724.211 1481.466, 727.504 1494.322 C 735.030 1523.700, 776.599 1520.307, 778.758 1490.138 C 780.077 1471.708, 761.775 1457.352, 744.718 1463.437 M 738.443 1472.288 C 738.171 1472.997, 738.073 1480.985, 738.224 1490.038 L 738.500 1506.500 741.500 1506.500 L 744.500 1506.500 744.794 1499.250 C 745.085 1492.066, 745.113 1492, 747.857 1492 C 751.047 1492, 754.534 1495.343, 758.059 1501.782 C 760.408 1506.070, 763.466 1507.803, 766.579 1506.608 C 768.360 1505.925, 766.496 1502.095, 760.809 1494.750 L 757.906 1491 760.528 1489.805 C 768.640 1486.109, 767.124 1474.517, 758.205 1472.040 C 752.732 1470.520, 739.055 1470.692, 738.443 1472.288 M 745 1481.500 L 745 1486 750.066 1486 C 756.354 1486, 759 1484.667, 759 1481.500 C 759 1478.333, 756.354 1477, 750.066 1477 L 745 1477 745 1481.500 M 134 1510 L 134 1521 422 1521 L 710 1521 710 1510 L 710 1499 422 1499 L 134 1499 134 1510 M 792.432 1500.316 C 792.151 1501.050, 792.051 1505.891, 792.210 1511.075 L 792.500 1520.500 843 1520.500 L 893.500 1520.500 893.500 1510 L 893.500 1499.500 843.222 1499.241 C 802.048 1499.028, 792.852 1499.223, 792.432 1500.316 M 323.332 1556.851 C 315.575 1559.532, 311.555 1563.128, 307.810 1570.734 L 304.500 1577.458 304.500 1605.479 C 304.500 1636.824, 305.079 1640.227, 311.732 1648 C 320.565 1658.319, 342.803 1660.336, 348.690 1651.351 C 350.780 1648.161, 351.649 1648.386, 353.136 1652.500 C 354.400 1655.996, 354.410 1656, 360.701 1656 L 367 1656 367 1629 L 367 1602 351 1602 L 335 1602 335 1609.500 L 335 1617 341.500 1617 L 348 1617 347.994 1622.250 C 347.978 1637.521, 337.649 1647.018, 328.707 1639.984 C 324.036 1636.310, 323.500 1632.659, 323.500 1604.500 C 323.500 1571.728, 324.137 1570, 336.212 1570 C 344.712 1570, 347.505 1572.982, 348.857 1583.500 L 349.500 1588.500 357.500 1588.500 L 365.500 1588.500 365.282 1581.759 C 364.869 1569.030, 358.318 1559.657, 347.612 1556.477 C 340.875 1554.477, 329.706 1554.648, 323.332 1556.851 M 134 1606.500 L 134 1656 162.042 1656 L 190.084 1656 189.792 1648.250 L 189.500 1640.500 171.750 1640.227 L 154 1639.954 154 1626.002 L 154 1612.051 169.750 1611.775 L 185.500 1611.500 185.792 1603.750 L 186.084 1596 170.042 1596 L 154 1596 154 1585 L 154 1574 171.500 1574 L 189 1574 189 1565.500 L 189 1557 161.500 1557 L 134 1557 134 1606.500 M 235 1606.500 L 235 1656 244 1656 L 253 1656 253 1606.500 L 253 1557 244 1557 L 235 1557 235 1606.500 M 413 1606.500 L 413 1656 423.500 1656 L 434 1656 434 1633.500 L 434 1611 446 1611 L 458 1611 458 1633.500 L 458 1656 468 1656 L 478 1656 478 1606.500 L 478 1557 468 1557 L 458 1557 458 1575.500 L 458 1594 446 1594 L 434 1594 434 1575.500 L 434 1557 423.500 1557 L 413 1557 413 1606.500 M 522 1565.500 L 522 1574 532.500 1574 L 543 1574 543 1615 L 543 1656 552.500 1656 L 562 1656 562 1615 L 562 1574 572.500 1574 L 583 1574 583 1565.500 L 583 1557 552.500 1557 L 522 1557 522 1565.500 M 627 1606.500 L 627 1656 655.042 1656 L 683.084 1656 682.792 1648.250 L 682.500 1640.500 664.750 1640.227 L 647 1639.954 647 1625.977 L 647 1612 662.500 1612 L 678 1612 678 1604 L 678 1596 662.500 1596 L 647 1596 647 1585 L 647 1574 664.500 1574 L 682 1574 682 1565.500 L 682 1557 654.500 1557 L 627 1557 627 1606.500 M 727 1606.500 L 727 1656 755.042 1656 L 783.084 1656 782.792 1648.250 L 782.500 1640.500 764.750 1640.227 L 747 1639.954 747 1625.977 L 747 1612 762.500 1612 L 778 1612 778 1604 L 778 1596 762.500 1596 L 747 1596 747 1585 L 747 1574 764.500 1574 L 782 1574 782 1565.500 L 782 1557 754.500 1557 L 727 1557 727 1606.500 M 828 1606.466 L 828 1656 837.500 1656 L 847 1656 847.082 1625.750 C 847.157 1597.624, 847.271 1595.746, 848.703 1599 C 849.550 1600.925, 854.642 1614.425, 860.018 1629 L 869.794 1655.500 881.897 1655.781 L 894 1656.062 894 1606.531 L 894 1557 884 1557 L 874 1557 873.988 1585.750 L 873.977 1614.500 861.708 1586 L 849.439 1557.500 838.719 1557.216 L 828 1556.932 828 1606.466 M 175.191 1693.025 C 146.838 1700.453, 132.250 1728.450, 138.489 1763.464 C 142.191 1784.245, 149.926 1792.465, 179.506 1807.051 C 208.026 1821.115, 214.319 1827.187, 214.357 1840.680 C 214.401 1855.949, 200.346 1864.914, 184.904 1859.466 C 175.451 1856.131, 173 1851.618, 173 1837.550 L 173 1827 153.500 1827 L 134 1827 134 1838.316 C 134 1857.938, 136.538 1865.957, 146.038 1876.351 C 161.504 1893.274, 199.982 1898.250, 224.500 1886.499 C 243.269 1877.503, 253.014 1859.062, 252.988 1832.590 C 252.961 1805.050, 246.214 1795.802, 213.525 1778.500 C 180.571 1761.058, 174.561 1755.882, 173.332 1743.889 C 171.906 1729.969, 180.387 1719.621, 193.126 1719.737 C 205.234 1719.847, 211.096 1725.959, 211.971 1739.383 L 212.500 1747.500 229.500 1747.500 L 246.500 1747.500 246.813 1742 C 248.373 1714.549, 235.168 1697.608, 208.162 1692.412 C 197.910 1690.439, 184.079 1690.697, 175.191 1693.025 M 334 1693.691 C 313.553 1697.114, 298.895 1711.356, 292.825 1733.700 C 290.862 1740.925, 290.672 1744.648, 290.248 1784.240 C 289.765 1829.346, 290.541 1844.700, 293.847 1855.500 C 301.214 1879.567, 317.364 1892.109, 343.020 1893.688 C 373.839 1895.585, 395.796 1879.610, 402.674 1850.287 C 405.436 1838.509, 405.436 1747.491, 402.674 1735.713 C 397.473 1713.540, 384.027 1699.283, 363.824 1694.520 C 357.963 1693.139, 340.243 1692.646, 334 1693.691 M 452.284 1769.750 C 452.643 1835.293, 452.900 1845.362, 454.370 1851.500 C 461.290 1880.396, 475.087 1892.496, 502.500 1893.710 C 532.282 1895.029, 549.161 1882.321, 556.203 1853.279 C 558.257 1844.810, 558.346 1841.862, 558.729 1769.750 L 559.126 1695 543.063 1695 L 527 1695 527 1768.053 C 527 1846.848, 526.776 1850.642, 521.680 1858.105 C 514.802 1868.177, 496.401 1867.654, 489.346 1857.186 C 484.847 1850.509, 484.725 1848.412, 484.284 1769.750 L 483.864 1695 467.869 1695 L 451.874 1695 452.284 1769.750 M 611 1793.500 L 611 1892 627.492 1892 L 643.985 1892 644.242 1830.250 L 644.500 1768.500 664.994 1830.250 L 685.488 1892 706.244 1892 L 727 1892 727 1793.500 L 727 1695 710.008 1695 L 693.016 1695 692.758 1753.120 L 692.500 1811.240 674.107 1763.370 C 663.992 1737.041, 653.932 1710.888, 651.753 1705.250 L 647.792 1695 629.396 1695 L 611 1695 611 1793.500 M 778 1793.589 L 778 1892.179 812.250 1891.757 C 843.573 1891.371, 847.184 1891.149, 854.500 1889.152 C 875.828 1883.331, 886.670 1871.923, 891.742 1849.965 C 894.043 1840.004, 894.372 1745.222, 892.148 1733.180 C 889.248 1717.484, 880.309 1705.738, 867.299 1700.530 C 855.678 1695.878, 846.720 1695, 810.869 1695 L 778 1695 778 1793.589 M 339.500 1718.569 C 331.779 1722.577, 326.026 1731.987, 324.018 1743.895 C 323.256 1748.409, 322.990 1765.587, 323.202 1796.548 C 323.515 1842.166, 323.534 1842.543, 325.879 1848.381 C 336.474 1874.757, 365.342 1870.337, 370.977 1841.475 C 371.798 1837.271, 372.039 1821.574, 371.790 1788.500 L 371.436 1741.500 368.968 1735.107 C 363.245 1720.284, 350.249 1712.991, 339.500 1718.569 M 811 1791.611 L 811 1862.222 825.293 1861.853 C 841.954 1861.422, 847.011 1859.630, 852.732 1852.129 C 859.284 1843.539, 859.500 1841.606, 859.500 1791.500 C 859.500 1751.892, 859.295 1745.841, 857.793 1741 C 853.207 1726.222, 843.514 1721, 820.668 1721 L 811 1721 811 1791.611" stroke="none" fill="#ffffff" fill-rule="evenodd"/>
</svg>