<?xml version="1.0" encoding="UTF-8"?>
<svg xmlns="http://www.w3.org/2000/svg" xmlns:xlink="http://www.w3.org/1999/xlink" width="864pt" height="115.65pt" viewBox="0 0 864 115.65" version="1.1">
<defs>
<clipPath id="clip1">
  <path fill="#ffffff" d="M 770 32 L 864 32 L 864 115.648438 L 770 115.648438 Z M 770 32 "/>
</clipPath>
</defs>
<g id="surface1">
<path fill="#ffffff" style="stroke:none;fill-opacity:1" d="M 780.105469 38.34375 C 774.757813 66.742188 745.328125 71.613281 733.285156 72.566406 C 721.246094 73.519531 724.730469 65.910156 724.730469 65.910156 C 724.730469 65.910156 738.066406 30.613281 740.175781 24.792969 C 741.96875 19.847656 744.214844 15.882813 748.257813 15.882813 C 752.296875 15.882813 753.363281 15.882813 757.523438 15.882813 C 761.6875 15.882813 771.191406 16.714844 776.421875 22.179688 C 781.648438 27.648438 780.105469 38.34375 780.105469 38.34375 Z M 807.4375 18.0625 C 794.445313 2.214844 765.355469 3.800781 765.355469 3.800781 L 719.34375 3.800781 L 688.921875 84.921875 L 734.554688 84.921875 C 734.554688 84.921875 764.980469 86.191406 785.257813 72.246094 C 805.535156 58.304688 820.433594 33.90625 807.4375 18.0625 "/>
<g clip-path="url(#clip1)" clip-rule="nonzero">
<path fill="#ffffff" style="stroke:none;fill-opacity:1" d="M 822.289063 32.992188 L 817.417969 44.355469 C 817.417969 44.355469 824.191406 44.355469 826.804688 44.355469 C 829.421875 44.355469 829.894531 47.492188 828.351563 51.652344 C 826.804688 55.808594 814.804688 88.488281 814.804688 88.488281 C 814.804688 88.488281 810.882813 97.519531 799.234375 100.136719 C 787.589844 102.75 782.835938 102.511719 776.300781 102.511719 C 774.398438 107.027344 770.714844 115.648438 770.714844 115.648438 C 770.714844 115.648438 788.539063 115.648438 799.355469 115.648438 C 810.167969 115.648438 833.578125 111.183594 840.589844 94.667969 C 847.601563 78.152344 864 32.992188 864 32.992188 L 822.289063 32.992188 "/>
</g>
<path fill="#ffffff" style="stroke:none;fill-opacity:1" d="M 0 84.609375 L 28.242188 84.609375 L 46.007813 35.917969 C 46.007813 35.917969 50.132813 19.273438 78 19.273438 C 103.625 19.273438 101.582031 28.621094 101.582031 30.117188 C 101.582031 31.617188 99.882813 39.84375 79.871094 39.84375 C 59.863281 39.84375 50.878906 36.46875 50.878906 36.46875 L 55.183594 57.054688 C 55.183594 57.054688 74.519531 59.679688 83.242188 59.679688 C 90.921875 59.679688 129.644531 55.363281 129.644531 28.242188 C 129.644531 11.027344 106.433594 -0.00390625 78.5625 -0.00390625 C 46.015625 -0.00390625 27.464844 12.460938 19.277344 32.929688 L 0 84.609375 "/>
<path fill="#ffffff" style="stroke:none;fill-opacity:1" d="M 136.003906 36.386719 L 118.039063 84.609375 L 144.417969 84.609375 L 162.371094 36.386719 L 136.003906 36.386719 "/>
<path fill="#ffffff" style="stroke:none;fill-opacity:1" d="M 208.578125 49.011719 C 202.21875 49.011719 188.941406 52.570313 188.941406 60.796875 C 188.941406 69.03125 200.722656 71.839844 207.644531 71.839844 C 214.566406 71.839844 228.414063 68.457031 228.414063 60.238281 C 228.414063 52.011719 215.878906 49.011719 208.578125 49.011719 Z M 256.476563 59.296875 C 256.476563 78.675781 224.09375 87.179688 205.398438 87.179688 C 196.230469 87.179688 160.886719 82.121094 160.886719 61.355469 C 160.886719 40.601563 196.074219 33.863281 210.269531 33.863281 C 226.15625 33.863281 256.476563 39.925781 256.476563 59.296875 "/>
<path fill="#ffffff" style="stroke:none;fill-opacity:1" d="M 254.789063 84.609375 L 280.601563 84.609375 L 291.078125 56.679688 C 291.789063 54.359375 295.386719 48.644531 306.605469 48.644531 C 319.632813 48.644531 318.039063 56.5625 317.269531 58.554688 L 307.726563 84.609375 L 333.171875 84.609375 L 343.082031 57.800781 C 343.082031 57.800781 351.316406 34.238281 312.035156 34.238281 C 271.816406 34.238281 266.019531 54.804688 266.019531 54.804688 L 254.789063 84.609375 "/>
<path fill="#ffffff" style="stroke:none;fill-opacity:1" d="M 397.527344 34.238281 C 379.554688 34.238281 348.890625 41.726563 348.890625 62.851563 C 348.890625 80.820313 382.347656 87.359375 392.460938 87.359375 C 419.027344 87.359375 430.828125 83.253906 430.828125 83.253906 L 436.25 68.28125 C 436.25 68.28125 420.914063 73.894531 399.027344 73.894531 C 365.71875 73.894531 368.152344 59.859375 368.152344 59.859375 C 368.152344 59.859375 377.324219 67.347656 399.585938 67.347656 C 421.851563 67.347656 441.304688 62.667969 441.304688 53.695313 C 441.304688 44.710938 422.332031 34.238281 397.527344 34.238281 Z M 400.140625 46.960938 C 415.289063 46.960938 415.859375 51.632813 415.859375 51.632813 C 415.859375 51.632813 418.671875 54.804688 401.640625 54.804688 C 384.609375 54.804688 377.886719 50.691406 377.886719 50.691406 C 377.886719 50.691406 386.671875 46.960938 400.140625 46.960938 "/>
<path fill="#ffffff" style="stroke:none;fill-opacity:1" d="M 536.515625 84.609375 L 562.152344 84.609375 L 571.5 58.554688 C 571.5 58.554688 573.371094 51.257813 580.105469 51.257813 C 586.835938 51.257813 600.117188 51.257813 600.117188 51.257813 L 604.984375 36.382813 L 568.882813 36.386719 C 568.882813 36.386719 554.289063 37.238281 547.929688 53.324219 C 541.566406 69.398438 536.515625 84.609375 536.515625 84.609375 "/>
<path fill="#ffffff" style="stroke:none;fill-opacity:1" d="M 474.878906 51.035156 C 474.878906 51.035156 481.609375 55.15625 498.632813 55.15625 C 515.664063 55.15625 512.855469 51.972656 512.855469 51.972656 C 512.855469 51.972656 512.28125 47.300781 497.132813 47.300781 C 483.660156 47.300781 474.878906 51.035156 474.878906 51.035156 Z M 538.296875 54.039063 C 538.296875 63.015625 518.84375 67.695313 496.578125 67.695313 C 474.3125 67.695313 465.148438 60.207031 465.148438 60.207031 C 465.148438 60.207031 462.714844 74.234375 496.019531 74.234375 C 517.90625 74.234375 533.246094 68.632813 533.246094 68.632813 L 527.816406 83.59375 C 527.816406 83.59375 516.027344 87.703125 489.453125 87.703125 C 479.34375 87.703125 445.886719 81.160156 445.886719 63.199219 C 445.886719 42.070313 476.546875 34.585938 494.511719 34.585938 C 519.320313 34.585938 538.296875 45.054688 538.296875 54.039063 "/>
</g>
</svg>
