<svg xmlns="http://www.w3.org/2000/svg" width="420" height="270" viewBox="0 0 420 270" version="1.1">
	<path d="M 41.500 39.217 C 33.481 42.050, 26.425 49.299, 24.085 57.112 C 23.387 59.439, 23 74.340, 23 98.829 C 23 142.306, 23.325 144.448, 30.983 151.366 C 39.078 158.679, 37.822 158.467, 75.079 158.799 C 107.182 159.084, 108.765 159.011, 111.079 157.137 C 114.440 154.415, 114.520 147.077, 111.225 143.778 C 108.991 141.541, 108.441 141.491, 80.640 140.992 C 39.796 140.260, 42.500 143.367, 42.500 97.173 L 42.500 64.846 46.131 61.518 C 51.652 56.460, 56.678 55.817, 86.154 56.398 C 115.529 56.977, 117.146 57.212, 121.467 61.533 C 125.758 65.825, 126 67.533, 126 93.560 C 126 118.230, 126.382 120.261, 131.477 122.691 C 134.756 124.254, 135.239 124.256, 138.455 122.723 C 144.906 119.647, 145.150 118.261, 144.807 86.690 C 144.460 54.865, 144.151 53.384, 136.253 45.722 C 128.503 38.204, 127.017 37.990, 83.239 38.079 C 58.721 38.129, 43.399 38.547, 41.500 39.217 M 152.898 40.283 C 148.194 43.444, 147.518 50.258, 151.533 54.033 L 154.157 56.500 188.375 57 C 225.649 57.545, 225.695 57.552, 229.622 63.546 C 231.855 66.954, 232.553 78.382, 230.838 83.463 C 228.386 90.728, 225.057 92, 208.501 92 C 189.174 92, 184.094 93.935, 179.472 103.055 C 175.272 111.344, 176.796 119.752, 183.658 126.148 C 185.221 127.605, 195.050 135.480, 205.500 143.648 L 224.500 158.500 244.766 158.500 L 265.033 158.500 288.249 135.224 L 311.465 111.948 334.149 134.671 C 346.625 147.169, 357.883 157.785, 359.166 158.264 C 360.450 158.742, 367.503 158.991, 374.839 158.817 C 388.047 158.503, 388.202 158.472, 390.589 155.694 C 393.924 151.813, 393.740 147.586, 390.077 143.923 C 388.469 142.315, 386.557 140.987, 385.827 140.971 C 385.097 140.955, 380.327 140.842, 375.226 140.721 L 365.951 140.500 345.341 119.644 L 324.730 98.787 345.522 77.978 L 366.314 57.169 377.254 56.834 C 388.042 56.505, 388.227 56.459, 390.592 53.500 C 394.659 48.412, 393.190 42.701, 386.989 39.494 C 383.012 37.438, 362.044 37.393, 358.200 39.433 C 356.715 40.221, 345.829 50.571, 334.009 62.433 C 322.189 74.295, 311.931 84, 311.214 84 C 310.497 84, 300.143 74.184, 288.205 62.187 C 276.267 50.190, 265.285 39.776, 263.800 39.045 C 260.352 37.347, 255.841 39.011, 252.974 43.036 C 248.726 49.003, 249.106 49.567, 274 74.214 C 286.650 86.738, 297 97.491, 297 98.109 C 297 98.727, 288.169 108.405, 277.376 119.616 L 257.752 140 244.794 140 L 231.835 140 225.353 135.250 C 206.369 121.340, 197.483 114.272, 197.212 112.863 C 196.950 111.500, 199.198 111.224, 214.205 110.771 C 233.858 110.179, 238.103 108.949, 244.345 102.040 C 249.982 95.801, 251.235 90.237, 250.841 73.218 C 250.439 55.850, 248.184 49.319, 240.727 43.917 C 233.054 38.359, 230.066 38, 191.466 38 C 156.501 38, 156.276 38.013, 152.898 40.283 M 106.615 115.088 C 102.149 118.601, 100.658 122.439, 102.430 125.865 C 104.585 130.032, 131.196 156.744, 134.410 157.966 C 140.293 160.203, 147 155.442, 147 149.029 C 147 145.586, 145.985 144.336, 132.250 130.875 C 112.433 111.452, 111.763 111.039, 106.615 115.088 M 31.011 171.487 C 29.299 173.550, 30.480 175.990, 33.219 176.048 C 34.473 176.074, 114.213 176.090, 210.419 176.084 C 394.850 176.071, 389.308 176.208, 385.294 171.773 C 383.023 169.262, 33.091 168.980, 31.011 171.487 M 355.684 190.388 C 348.098 193.214, 345 197.974, 345 206.802 C 345 214.156, 347.637 218.551, 353.970 221.750 C 362.401 226.009, 374.293 223.603, 379.266 216.633 C 382.530 212.055, 382.479 200.872, 379.171 196.235 C 374.828 190.146, 363.741 187.386, 355.684 190.388 M 50.331 191.250 C 49.352 192.590, 49.144 193.021, 43.176 206.074 C 37.445 218.611, 36.406 221.806, 37.655 223.055 C 39.623 225.023, 43.982 222.978, 45.485 219.383 L 46.898 216 54.764 216 L 62.630 216 64.236 219.368 C 65.344 221.693, 66.717 222.904, 68.665 223.276 C 74.303 224.354, 74.300 222.971, 68.639 210.842 C 66.241 205.704, 63.097 198.912, 61.653 195.750 C 59.112 190.185, 58.902 190, 55.136 190 C 52.996 190, 50.834 190.563, 50.331 191.250 M 122.371 191.475 C 120.859 195.415, 122.552 216.847, 124.553 219.092 C 131.018 226.345, 148.296 225.230, 151.897 217.327 C 152.512 215.976, 153 209.400, 153 202.453 L 153 190 149 190 L 145 190 145 202.345 C 145 216.314, 144.231 218, 137.862 218 C 131.254 218, 130.561 216.662, 130 202.834 L 129.500 190.500 126.243 190.186 C 123.971 189.967, 122.800 190.357, 122.371 191.475 M 205.226 206.676 L 205.500 223.351 211 223.706 C 228.487 224.834, 237 219.200, 237 206.500 C 237 199.904, 235.249 196.055, 230.657 192.552 C 227.531 190.168, 226.576 190, 216.131 190 L 204.952 190 205.226 206.676 M 287 206.393 C 287 224.046, 287.074 224.282, 292.313 223.280 L 295 222.767 295 206.383 L 295 190 291 190 L 287 190 287 206.393 M 213.414 196.363 C 213.144 197.067, 213.053 202.110, 213.212 207.571 L 213.500 217.500 216.888 217.824 C 225.432 218.640, 229 215.300, 229 206.486 C 229 201.393, 228.617 200.001, 226.750 198.305 C 223.992 195.801, 214.179 194.371, 213.414 196.363 M 358.357 195.938 C 352.140 198.602, 350.812 209.658, 356.077 214.923 C 361.997 220.843, 371.734 218.042, 373.521 209.905 C 374.448 205.685, 373.170 199.464, 370.968 197.471 C 368.779 195.490, 361.474 194.602, 358.357 195.938 M 52.060 203.750 C 51.321 205.813, 50.508 208.063, 50.252 208.750 C 49.921 209.637, 51.126 210, 54.393 210 C 59.226 210, 60.048 208.936, 58.073 205.236 C 57.563 204.281, 56.902 202.713, 56.604 201.750 C 55.696 198.814, 53.477 199.791, 52.060 203.750" stroke="none" fill="#ffffff" fill-rule="evenodd"/>
</svg>